<svg width="20" height="20" viewBox="0 0 20 20" fill="none" xmlns="http://www.w3.org/2000/svg">
<path fill-rule="evenodd" clip-rule="evenodd" d="M2.95566 3.60564C2.95566 2.36378 3.96238 1.35706 5.20425 1.35706H10.1372C10.7335 1.35706 11.3054 1.59396 11.7271 2.01564L11.7271 2.01566L16.3857 6.67426C16.3857 6.67427 16.3857 6.67427 16.3858 6.67428C16.8075 7.09598 17.0444 7.66792 17.0444 8.26427V16.3943C17.0444 17.6362 16.0377 18.6429 14.7958 18.6429H5.20425C3.96239 18.6429 2.95566 17.6362 2.95566 16.3943V3.60564ZM14.8251 6.95211L11.4493 3.57629V6.95211H14.8251ZM10.1493 2.65713C10.1453 2.65708 10.1412 2.65706 10.1372 2.65706H5.20425C4.68035 2.65706 4.25566 3.08175 4.25566 3.60564V16.3943C4.25566 16.9183 4.68035 17.3429 5.20425 17.3429H14.7958C15.3197 17.3429 15.7444 16.9183 15.7444 16.3943V8.26427C15.7444 8.25449 15.7442 8.24473 15.7439 8.23499C15.6961 8.24619 15.6463 8.25211 15.5951 8.25211H10.7993C10.4403 8.25211 10.1493 7.9611 10.1493 7.60211V2.65713ZM6.15283 7.60211C6.15283 7.24313 6.44385 6.95211 6.80283 6.95211H7.60213C7.96111 6.95211 8.25213 7.24313 8.25213 7.60211C8.25213 7.9611 7.96111 8.25211 7.60213 8.25211H6.80283C6.44385 8.25211 6.15283 7.9611 6.15283 7.60211ZM6.15283 10.7993C6.15283 10.4403 6.44385 10.1493 6.80283 10.1493H12.3979C12.7569 10.1493 13.0479 10.4403 13.0479 10.7993C13.0479 11.1583 12.7569 11.4493 12.3979 11.4493H6.80283C6.44385 11.4493 6.15283 11.1583 6.15283 10.7993ZM6.15283 13.9965C6.15283 13.6375 6.44385 13.3465 6.80283 13.3465H12.3979C12.7569 13.3465 13.0479 13.6375 13.0479 13.9965C13.0479 14.3554 12.7569 14.6465 12.3979 14.6465H6.80283C6.44385 14.6465 6.15283 14.3554 6.15283 13.9965Z" fill="white"/>
</svg>
