<svg width="44" height="64" viewBox="0 0 44 64" fill="none" xmlns="http://www.w3.org/2000/svg">
<path fill-rule="evenodd" clip-rule="evenodd" d="M37.6768 31.2798C38.1077 31.6776 38.1077 32.3224 37.6768 32.7202L30.6545 39.2017C30.2236 39.5994 29.5249 39.5994 29.094 39.2017C28.6631 38.804 28.6631 38.1591 29.094 37.7614L34.2326 33.0185L7.10345 33.0185C6.49403 33.0185 6 32.5625 6 32C6 31.4375 6.49403 30.9815 7.10345 30.9815L34.2326 30.9815L29.094 26.2386C28.6631 25.8409 28.6631 25.196 29.094 24.7983C29.5249 24.4006 30.2236 24.4006 30.6545 24.7983L37.6768 31.2798Z" fill="white"/>
<path fill-rule="evenodd" clip-rule="evenodd" d="M24 39C24 39.5523 23.5523 40 23 40L7 40C6.44772 40 6 39.5523 6 39C6 38.4477 6.44772 38 7 38L23 38C23.5523 38 24 38.4477 24 39Z" fill="white"/>
<path fill-rule="evenodd" clip-rule="evenodd" d="M24 25C24 25.5523 23.5523 26 23 26L7 26C6.44772 26 6 25.5523 6 25C6 24.4477 6.44772 24 7 24L23 24C23.5523 24 24 24.4477 24 25Z" fill="white"/>
</svg>
