<svg width="24" height="24" viewBox="0 0 24 24" fill="none" xmlns="http://www.w3.org/2000/svg">
<path d="M7.48483 3.28772H20.6548C21.7648 3.28772 22.6548 4.1757 22.6548 5.28318V17.2559C22.6548 17.5951 22.5748 17.9144 22.4248 18.1938L20.6548 16.4278V11.2695H15.4848L11.4848 7.27864H20.6548V5.28318H9.48483L7.48483 3.28772ZM21.1448 22.5539L17.8248 19.2514H4.65485C3.54485 19.2514 2.65485 18.3634 2.65485 17.2559L2.66485 5.28318C2.66485 4.94395 2.74485 4.62468 2.89485 4.35529L1.34486 2.79884L2.75485 1.39204L22.5548 21.1471L21.1448 22.5539ZM4.65485 6.11129V7.27864H5.82484L4.65485 6.11129ZM15.8248 17.2559L9.82483 11.2695H4.65485V17.2559H15.8248Z" fill="#EDF2F7"/>
</svg>
