<svg width="24" height="24" viewBox="0 0 24 24" fill="none" xmlns="http://www.w3.org/2000/svg">
<path d="M18.9998 7.98187L14.9998 11.9728H17.9998C17.9998 15.2753 15.3098 17.9591 11.9998 17.9591C10.9899 17.9591 10.0299 17.7097 9.19986 17.2607L7.73987 18.7174C8.96986 19.4956 10.4299 19.9546 11.9998 19.9546C16.4198 19.9546 19.9998 16.3827 19.9998 11.9728H22.9998L18.9998 7.98187ZM5.99987 11.9728C5.99987 8.6703 8.68986 5.98641 11.9998 5.98641C13.0098 5.98641 13.9698 6.23584 14.7998 6.68482L16.2598 5.22814C15.0298 4.44991 13.5698 3.99095 11.9998 3.99095C7.57987 3.99095 3.99988 7.56282 3.99988 11.9728H0.999894L4.99988 15.9637L8.99986 11.9728H5.99987Z" fill="white"/>
</svg>
