<svg width="67" height="58" viewBox="0 0 67 58" fill="none" xmlns="http://www.w3.org/2000/svg">
<path d="M33.5 0C15.008 0 0 12.992 0 29C0 45.008 15.008 58 33.5 58C51.992 58 67 45.008 67 29C67 12.992 51.992 0 33.5 0ZM33.5 8.7C39.061 8.7 43.55 12.586 43.55 17.4C43.55 22.214 39.061 26.1 33.5 26.1C27.939 26.1 23.45 22.214 23.45 17.4C23.45 12.586 27.939 8.7 33.5 8.7ZM33.5 49.88C25.125 49.88 17.7215 46.168 13.4 40.542C13.5005 34.771 26.8 31.61 33.5 31.61C40.1665 31.61 53.4995 34.771 53.6 40.542C49.2785 46.168 41.875 49.88 33.5 49.88Z" fill="#606060" fill-opacity="0.5"/>
</svg>
