<svg width="20" height="20" viewBox="0 0 20 20" fill="none" xmlns="http://www.w3.org/2000/svg">
<path d="M7.78587 2.00003C6.69275 1.99631 5.62256 2.31341 4.7079 2.91202L8.35586 6.55998C8.47735 6.66364 8.57687 6.79056 8.64856 6.93327C8.72024 7.07598 8.76265 7.23159 8.77327 7.39094C8.78389 7.55029 8.76252 7.71015 8.71041 7.86112C8.65831 8.01208 8.57651 8.15109 8.46986 8.26996C8.35099 8.37661 8.21198 8.4584 8.06102 8.51051C7.91006 8.56262 7.75019 8.58399 7.59084 8.57337C7.43149 8.56275 7.27588 8.52034 7.13317 8.44866C6.99046 8.37697 6.86354 8.27745 6.75988 8.15596L2.99792 4.508C2.3475 5.4651 2.00904 6.59995 2.02894 7.75696C2.03494 9.28195 2.6434 10.7428 3.72174 11.8211C4.80007 12.8994 6.26088 13.5079 7.78587 13.5139C8.28494 13.5166 8.78252 13.4592 9.26785 13.3429L13.0868 17.1618C13.6235 17.6985 14.3513 18 15.1103 18C15.8692 18 16.5971 17.6985 17.1338 17.1618C17.6704 16.6252 17.9719 15.8973 17.9719 15.1384C17.9719 14.3794 17.6704 13.6516 17.1338 13.1149L13.3148 9.29594C13.4311 8.81061 13.4885 8.31303 13.4858 7.81396C13.501 7.0559 13.3647 6.30243 13.0851 5.59767C12.8054 4.89291 12.388 4.25103 11.8572 3.7096C11.3264 3.16818 10.6929 2.73811 9.99379 2.44456C9.29471 2.151 8.54408 1.99988 7.78587 2.00003ZM12.3458 7.75696C12.345 8.16199 12.2874 8.56489 12.1748 8.95395L12.0038 9.58094L12.4598 10.0369L16.2788 13.8559C16.4414 14.0099 16.5708 14.1955 16.659 14.4013C16.7473 14.6072 16.7924 14.8289 16.7918 15.0529C16.7982 15.2777 16.7556 15.5011 16.667 15.7078C16.5785 15.9145 16.446 16.0995 16.2788 16.2499C16.1244 16.412 15.9387 16.541 15.7329 16.6292C15.5272 16.7174 15.3056 16.7629 15.0818 16.7629C14.8579 16.7629 14.6364 16.7174 14.4306 16.6292C14.2249 16.541 14.0392 16.412 13.8848 16.2499L10.0658 12.4309L9.60985 11.9749L8.98285 12.1459C8.5938 12.2585 8.19089 12.3161 7.78587 12.3169C6.57467 12.3135 5.41125 11.8441 4.53691 11.0059C4.09473 10.5899 3.74457 10.0858 3.50897 9.52626C3.27336 8.9667 3.15753 8.364 3.16892 7.75696C3.16971 7.33321 3.22722 6.91147 3.33992 6.50298L5.84789 9.01095C6.05981 9.24156 6.31552 9.42768 6.60011 9.55845C6.88469 9.68923 7.19247 9.76204 7.50548 9.77265C7.8185 9.78327 8.1305 9.73146 8.42329 9.62026C8.71607 9.50905 8.9838 9.34068 9.21085 9.12495C9.42658 8.8979 9.59496 8.63017 9.70616 8.33738C9.81736 8.04459 9.86917 7.7326 9.85856 7.41958C9.84795 7.10656 9.77513 6.79879 9.64436 6.5142C9.51358 6.22961 9.32746 5.97391 9.09685 5.76199L6.58888 3.25402C6.95752 3.13743 7.34224 3.07972 7.72887 3.08302C8.94006 3.08638 10.1035 3.55584 10.9778 4.394C11.853 5.29498 12.3435 6.50092 12.3458 7.75696Z" fill="white"/>
</svg>
